<?xml version="1.0" encoding="UTF-8"?>
<svg xmlns="http://www.w3.org/2000/svg" xmlns:xlink="http://www.w3.org/1999/xlink">
	<symbol id="app-delete" xmlns="http://www.w3.org/2000/svg" viewBox="0 0 24 24" fill="none" stroke-width="1.5" stroke-linecap="round" stroke-linejoin="round" class="feather feather-delete">
		<path d="M21 4H8l-7 8 7 8h13a2 2 0 0 0 2-2V6a2 2 0 0 0-2-2z">
		</path>
		<line x1="18" y1="9" x2="12" y2="15">
		</line>
		<line x1="12" y1="9" x2="18" y2="15">
		</line>
	</symbol>
	<symbol id="app-increment" xmlns="http://www.w3.org/2000/svg" viewBox="0 0 24 24" fill="none" stroke-width="1.5" stroke-linecap="round" stroke-linejoin="round" class="feather feather-plus-circle">
		<circle cx="12" cy="12" r="10">
		</circle>
		<line x1="12" y1="8" x2="12" y2="16">
		</line>
		<line x1="8" y1="12" x2="16" y2="12">
		</line>
	</symbol>
	<symbol id="app-decrement" xmlns="http://www.w3.org/2000/svg" viewBox="0 0 24 24" fill="none" stroke-width="1.5" stroke-linecap="round" stroke-linejoin="round" class="feather feather-minus-circle">
		<circle cx="12" cy="12" r="10">
		</circle>
		<line x1="8" y1="12" x2="16" y2="12">
		</line>
	</symbol>
	<symbol id="app-barcode" xmlns="http://www.w3.org/2000/svg" viewBox="0 0 512 512" fill="none">
		<path d="M384,400.33l35.13-.33A29,29,0,0,0,448,371.13V140.87A29,29,0,0,0,419.13,112l-35.13.33" style="stroke-linecap:round;stroke-linejoin:round;stroke-width:32px" />
		<path d="M128,112l-36.8.33c-15.88,0-27.2,13-27.2,28.87V371.47c0,15.87,11.32,28.86,27.2,28.86L128,400" style="stroke-linecap:round;stroke-linejoin:round;stroke-width:32px" />
		<line x1="384" y1="192" x2="384" y2="320" style="stroke-linecap:round;stroke-linejoin:round;stroke-width:32px" />
		<line x1="320" y1="160" x2="320" y2="352" style="stroke-linecap:round;stroke-linejoin:round;stroke-width:32px" />
		<line x1="256" y1="176" x2="256" y2="336" style="stroke-linecap:round;stroke-linejoin:round;stroke-width:32px" />
		<line x1="192" y1="160" x2="192" y2="352" style="stroke-linecap:round;stroke-linejoin:round;stroke-width:32px" />
		<line x1="128" y1="192" x2="128" y2="320" style="stroke-linecap:round;stroke-linejoin:round;stroke-width:32px" />
	</symbol>
</svg>
